<svg xmlns="http://www.w3.org/2000/svg" viewBox="0 0 800 400">
  <!-- Background -->
  <rect width="800" height="400" fill="#f8fafc"/>
  
  <!-- Title -->
  <text x="400" y="50" text-anchor="middle" font-family="Arial" font-size="24" fill="#1e293b" font-weight="bold">
    Dependency Injection Container Pattern
  </text>

  <!-- Container Box -->
  <rect x="150" y="80" width="500" height="280" rx="10" fill="#e2e8f0" stroke="#64748b" stroke-width="2"/>
  <text x="400" y="100" text-anchor="middle" font-family="Arial" font-size="16" fill="#334155" font-weight="bold">DI Container</text>

  <!-- Registry Section -->
  <rect x="170" y="120" width="200" height="220" rx="8" fill="#bfdbfe" stroke="#3b82f6" stroke-width="2"/>
  <text x="270" y="140" text-anchor="middle" font-family="Arial" font-size="14" fill="#1e40af">Service Registry</text>

  <!-- Registered Services -->
  <rect x="180" y="160" width="180" height="30" rx="4" fill="white" stroke="#3b82f6"/>
  <text x="190" y="180" font-family="Arial" font-size="12" fill="#3b82f6">logger: LoggerService</text>

  <rect x="180" y="200" width="180" height="30" rx="4" fill="white" stroke="#3b82f6"/>
  <text x="190" y="220" font-family="Arial" font-size="12" fill="#3b82f6">db: DatabaseService</text>

  <rect x="180" y="240" width="180" height="30" rx="4" fill="white" stroke="#3b82f6"/>
  <text x="190" y="260" font-family="Arial" font-size="12" fill="#3b82f6">auth: AuthService</text>

  <rect x="180" y="280" width="180" height="30" rx="4" fill="white" stroke="#3b82f6"/>
  <text x="190" y="300" font-family="Arial" font-size="12" fill="#3b82f6">cache: CacheService</text>

  <!-- Factory Section -->
  <rect x="430" y="120" width="200" height="220" rx="8" fill="#ddd6fe" stroke="#7c3aed" stroke-width="2"/>
  <text x="530" y="140" text-anchor="middle" font-family="Arial" font-size="14" fill="#5b21b6">Service Factory</text>

  <!-- Factory Methods -->
  <rect x="440" y="160" width="180" height="40" rx="4" fill="white" stroke="#7c3aed"/>
  <text x="450" y="180" font-family="Arial" font-size="12" fill="#7c3aed">createService(name, factory)</text>
  <text x="450" y="195" font-family="Arial" font-size="10" fill="#7c3aed">Returns new instance</text>

  <rect x="440" y="210" width="180" height="40" rx="4" fill="white" stroke="#7c3aed"/>
  <text x="450" y="230" font-family="Arial" font-size="12" fill="#7c3aed">resolveService(name)</text>
  <text x="450" y="245" font-family="Arial" font-size="10" fill="#7c3aed">Returns existing instance</text>

  <!-- Dependency Resolution Animation -->
  <circle cx="270" cy="175" r="3" fill="#3b82f6">
    <animate attributeName="opacity" values="1;0.2;1" dur="2s" repeatCount="indefinite"/>
  </circle>
  <circle cx="270" cy="215" r="3" fill="#3b82f6">
    <animate attributeName="opacity" values="1;0.2;1" dur="2s" repeatCount="indefinite" begin="0.5s"/>
  </circle>
  <circle cx="270" cy="255" r="3" fill="#3b82f6">
    <animate attributeName="opacity" values="1;0.2;1" dur="2s" repeatCount="indefinite" begin="1s"/>
  </circle>

  <!-- Service Creation Animation -->
  <circle cx="530" cy="180" r="3" fill="#7c3aed">
    <animate attributeName="r" values="3;5;3" dur="3s" repeatCount="indefinite"/>
  </circle>

  <!-- Arrows -->
  <defs>
    <marker id="arrowhead" markerWidth="10" markerHeight="7" refX="9" refY="3.5" orient="auto">
      <polygon points="0 0, 10 3.5, 0 7" fill="#64748b"/>
    </marker>
  </defs>

  <path d="M 380,200 L 420,200" stroke="#64748b" stroke-width="2" marker-end="url(#arrowhead)"/>

  <!-- Legend -->
  <rect x="200" y="360" width="15" height="15" fill="#bfdbfe"/>
  <text x="225" y="372" font-family="Arial" font-size="12" fill="#334155">Service Registry</text>

  <rect x="350" y="360" width="15" height="15" fill="#ddd6fe"/>
  <text x="375" y="372" font-family="Arial" font-size="12" fill="#334155">Service Factory</text>

  <circle cx="500" y="367" r="3" fill="#3b82f6">
    <animate attributeName="opacity" values="1;0.2;1" dur="2s" repeatCount="indefinite"/>
  </circle>
  <text x="520" y="372" font-family="Arial" font-size="12" fill="#334155">Active Service</text>

  <!-- Container Interface -->
  <path d="M 150,70 L 650,70" stroke="#64748b" stroke-width="1" stroke-dasharray="4"/>
  <text x="170" y="65" font-family="Arial" font-size="12" fill="#64748b">register()</text>
  <text x="270" y="65" font-family="Arial" font-size="12" fill="#64748b">resolve()</text>
  <text x="370" y="65" font-family="Arial" font-size="12" fill="#64748b">createService()</text>
</svg>
