<svg xmlns="http://www.w3.org/2000/svg" viewBox="0 0 800 400">
  <!-- Background -->
  <rect width="800" height="400" fill="#f8fafc"/>
  
  <!-- Title -->
  <text x="400" y="50" text-anchor="middle" font-family="Arial" font-size="24" fill="#1e293b" font-weight="bold">
    Adaptive Rate Limiter Pattern
  </text>

  <!-- Request Queue -->
  <rect x="50" y="100" width="150" height="200" rx="10" fill="#e2e8f0" stroke="#64748b" stroke-width="2"/>
  <text x="125" y="90" text-anchor="middle" font-family="Arial" font-size="14" fill="#334155">Incoming Requests</text>
  
  <!-- Request circles in queue -->
  <circle cx="90" cy="140" r="15" fill="#93c5fd"/>
  <circle cx="125" cy="140" r="15" fill="#93c5fd"/>
  <circle cx="160" cy="140" r="15" fill="#93c5fd"/>
  <circle cx="90" cy="180" r="15" fill="#93c5fd"/>
  <circle cx="125" cy="180" r="15" fill="#93c5fd"/>
  
  <!-- Rate Limiter Box -->
  <rect x="300" y="100" width="250" height="200" rx="10" fill="#bfdbfe" stroke="#3b82f6" stroke-width="2"/>
  <text x="425" y="90" text-anchor="middle" font-family="Arial" font-size="14" fill="#1e40af">Adaptive Rate Limiter</text>
  
  <!-- Threshold Indicator -->
  <rect x="320" y="130" width="210" height="30" rx="5" fill="#f1f5f9"/>
  <rect x="320" y="130" width="168" height="30" rx="5" fill="#60a5fa"/>
  <text x="425" y="150" text-anchor="middle" font-family="Arial" font-size="12" fill="#1e293b">Adaptive Threshold (80%)</text>
  
  <!-- Window Time -->
  <path d="M 320,180 L 530,180" stroke="#1e40af" stroke-width="2" stroke-dasharray="5,5"/>
  <text x="425" y="200" text-anchor="middle" font-family="Arial" font-size="12" fill="#1e40af">Time Window</text>
  
  <!-- Counter -->
  <rect x="320" y="220" width="210" height="30" rx="5" fill="#f1f5f9"/>
  <text x="425" y="240" text-anchor="middle" font-family="Arial" font-size="12" fill="#1e293b">Request Count: 8/10</text>

  <!-- Output/Service -->
  <rect x="650" y="100" width="100" height="200" rx="10" fill="#e2e8f0" stroke="#64748b" stroke-width="2"/>
  <text x="700" y="90" text-anchor="middle" font-family="Arial" font-size="14" fill="#334155">Service</text>
  
  <!-- Processed Request circles -->
  <circle cx="700" cy="140" r="15" fill="#60a5fa"/>
  <circle cx="700" cy="180" r="15" fill="#60a5fa"/>
  <circle cx="700" cy="220" r="15" fill="#60a5fa"/>

  <!-- Arrows -->
  <defs>
    <marker id="arrowhead" markerWidth="10" markerHeight="7" refX="9" refY="3.5" orient="auto">
      <polygon points="0 0, 10 3.5, 0 7" fill="#64748b"/>
    </marker>
  </defs>
  
  <!-- Flow Arrows -->
  <path d="M 200,200 L 300,200" stroke="#64748b" stroke-width="2" marker-end="url(#arrowhead)"/>
  <path d="M 550,200 L 650,200" stroke="#64748b" stroke-width="2" marker-end="url(#arrowhead)"/>

  <!-- Animated Request -->
  <circle cx="250" cy="200" r="6" fill="#3b82f6">
    <animate attributeName="cx" from="200" to="300" dur="1.5s" repeatCount="indefinite"/>
    <animate attributeName="opacity" values="1;0.2;1" dur="1.5s" repeatCount="indefinite"/>
  </circle>
  
  <circle cx="600" cy="200" r="6" fill="#3b82f6">
    <animate attributeName="cx" from="550" to="650" dur="1.5s" repeatCount="indefinite"/>
    <animate attributeName="opacity" values="1;0.2;1" dur="1.5s" repeatCount="indefinite"/>
  </circle>

  <!-- Legend -->
  <rect x="50" y="330" width="15" height="15" fill="#93c5fd"/>
  <text x="75" y="342" font-family="Arial" font-size="12" fill="#334155">Pending Requests</text>
  
  <rect x="180" y="330" width="15" height="15" fill="#60a5fa"/>
  <text x="205" y="342" font-family="Arial" font-size="12" fill="#334155">Processed Requests</text>
  
  <rect x="310" y="330" width="15" height="15" fill="#bfdbfe"/>
  <text x="335" y="342" font-family="Arial" font-size="12" fill="#334155">Rate Limiter Window</text>
</svg>
